<svg xmlns="http://www.w3.org/2000/svg" viewBox="0 0 138.6 28.3"><defs><style>.a{fill:#f2f2f2;}</style></defs><path class="a" d="M.7,14.6c0-1,.8-1.3,2-1.3H4.5a1.6,1.6,0,0,1,1.7,1.8v7.7c.1,1.7.8,2.4,2.5,2.4a12.2,12.2,0,0,0,2.7,0,1.9,1.9,0,0,0,1.9-2.1v-8a1.5,1.5,0,0,1,1.4-1.7h2.8A1.4,1.4,0,0,1,18.8,15v7.6c0,3.4-1.6,5.6-4.9,6.3a19.2,19.2,0,0,1-8.6-.1A5.7,5.7,0,0,1,.7,23.6v-9Z" transform="translate(-0.7 -1)"/><path class="a" d="M125.9,2.4A13.4,13.4,0,1,1,112.4,16,13.4,13.4,0,0,1,125.9,2.4ZM116.8,16a8,8,0,0,1,7.4-5,9.2,9.2,0,0,1,8.2,4.1,30.7,30.7,0,0,0,2.6-2.5c.6-.7,1.1-1.5,1.6-2.2a.6.6,0,0,0,0-.8c-.5-.5-.8-1.1-1.3-1.7a14.1,14.1,0,0,0-10.1-4.2A13.4,13.4,0,0,0,119,5.4a11.2,11.2,0,0,0-5.3,6.4,2.6,2.6,0,0,0,.2,1.5A9.4,9.4,0,0,0,116.8,16Zm6.2,5.8a31,31,0,0,0,9.6,1.4l-.2.3a7.4,7.4,0,0,1-3.5,3,8.7,8.7,0,0,1-8.4-.6,7.9,7.9,0,0,1-4.2-8c0-.1-.1-.3-.2-.3a7.5,7.5,0,0,1-2.9-3.2A12.7,12.7,0,0,0,137.4,21l-.4.3a10.1,10.1,0,0,1-3.8.9,30.7,30.7,0,0,1-8-.9l-1.9-.5Zm15.4-4-.7.6a8.7,8.7,0,0,1-4.2,1,33.6,33.6,0,0,1-6.3-.6L124,18c0,.1-.1.2-.1.3s-.1.5-.2.8h.3a31,31,0,0,0,7.5,1.3,14.4,14.4,0,0,0,4.6-.4C137.2,19.8,138.4,19.2,138.4,17.8Z" transform="translate(-0.7 -1)"/><path class="a" d="M112.1,15.8A13.5,13.5,0,0,1,98.8,29.2,13.3,13.3,0,0,1,85.2,15.5,13.2,13.2,0,0,1,98.7,2.4,13.4,13.4,0,0,1,112.1,15.8Zm-8.2-3.9h0a17.8,17.8,0,0,0,1.4-5.5c0-.5.1-1-.6-1.3a14.6,14.6,0,0,0-6.5-1.3,12.5,12.5,0,0,0-6,1.9c-4.5,2.8-6.9,6.8-6.2,12.3a1.9,1.9,0,0,0,1,1.6l2.1.7,1.8.3a8,8,0,0,1,3.2-7.6C97.1,10.6,100.4,10.4,103.9,11.9ZM87,21a12.8,12.8,0,0,0,24.3-6.6,3,3,0,0,0-.4.8,9.7,9.7,0,0,1-2.8,2.5,25,25,0,0,1-7.5,3.2l-1.7.5.3,1a33.2,33.2,0,0,0,9-3.6v.5a8,8,0,0,1-3.2,5.9,8.7,8.7,0,0,1-6.8,2,8,8,0,0,1-6.7-4.7.5.5,0,0,0-.5-.4A8,8,0,0,1,87,21Zm11.2-2.4a.7.7,0,0,0,.1.5c.1.6.1.6.7.5a29.1,29.1,0,0,0,8-3.2,9.9,9.9,0,0,0,3.3-2.8,1.8,1.8,0,0,0,.2-2.3,3.6,3.6,0,0,1-.4.9,5.2,5.2,0,0,1-1.7,1.9,24.1,24.1,0,0,1-7.7,3.8Z" transform="translate(-0.7 -1)"/><path class="a" d="M34.3,22.7V15a1.5,1.5,0,0,1,1.4-1.6h2.7a1.4,1.4,0,0,1,1.3,1.5V27.6a1.5,1.5,0,0,1-1.3,1.5h-4a3,3,0,0,1-2.5-1.3l-5.4-7.2v6.7a1.5,1.5,0,0,1-1.7,1.7H22.6c-1.1,0-1.6-.6-1.6-1.7V15.1a1.6,1.6,0,0,1,1.8-1.8h2.9a2.9,2.9,0,0,1,2.5,1.2L34,22.3Z" transform="translate(-0.7 -1)"/><path class="a" d="M73.2,23.2v2h9.5c1.3,0,1.9.5,1.9,1.8v.6a1.5,1.5,0,0,1-1.3,1.5H69.1a1.5,1.5,0,0,1-1.4-1.6V15.1a1.6,1.6,0,0,1,1.8-1.8H82.9a1.6,1.6,0,0,1,1.7,1.8v.4a1.6,1.6,0,0,1-1.8,1.8H73.2v1.9h8.1a2.5,2.5,0,0,1,1.3.4c.9.7.8,2.8-.1,3.3a2.3,2.3,0,0,1-1.1.3H73.2Z" transform="translate(-0.7 -1)"/><path class="a" d="M60.3,17.3V27.4a1.5,1.5,0,0,1-1.7,1.7H56.5c-1.1,0-1.7-.6-1.7-1.8v-10H50.2c-1.2,0-1.7-.6-1.8-1.8s.9-2.2,2.2-2.2H64.8c1.4,0,2,.6,2,2v.2c0,1.2-.6,1.8-1.9,1.8H60.3Z" transform="translate(-0.7 -1)"/><path class="a" d="M42,21.2V15.1a1.6,1.6,0,0,1,1.7-1.8h2.1a1.6,1.6,0,0,1,1.7,1.8V27.4A1.5,1.5,0,0,1,46,29.1H43.5A1.5,1.5,0,0,1,42,27.4Z" transform="translate(-0.7 -1)"/><path class="a" d="M49.4,5.5c2.3-1.4,3.6-1.3,5.4.3l1-.6a4.6,4.6,0,0,1,3.6-.5,2.7,2.7,0,0,1,2,2.4c.1,1.6.1,3.2.1,4.8a.5.5,0,0,1-.5.5H59.2a.5.5,0,0,1-.6-.6V7.5c-.2-1-.9-1.5-1.8-1.2a6,6,0,0,0-1.3.9.4.4,0,0,0-.1.3v4.3a.5.5,0,0,1-.6.6H53.1a.5.5,0,0,1-.6-.6c.1-1.1.1-2.3.1-3.4V7.9c-.1-.9-.4-1.4-1.1-1.6a2.2,2.2,0,0,0-2.1.9v4.5c0,.6-.2.7-.7.7H47.1c-.5,0-.6-.1-.6-.6V5.3c0-.5.1-.6.7-.6h1.3C49.3,4.7,49.3,4.7,49.4,5.5Z" transform="translate(-0.7 -1)"/><path class="a" d="M4.3,10.2v1.4c0,.5-.2.8-.7.8H2a.7.7,0,0,1-.8-.8V3.1c0-.5.2-.8.7-.8h8A3.3,3.3,0,0,1,13.1,5a4.9,4.9,0,0,1,0,2.4,3.4,3.4,0,0,1-3,2.6l-3,.2Zm.1-2H6.1L8.6,8A1.4,1.4,0,0,0,10,7.2,1.9,1.9,0,0,0,8.6,4.4L4.4,4.2Z" transform="translate(-0.7 -1)"/><path class="a" d="M31.5,8.5a4.2,4.2,0,0,1,2.1,1.8l1,1.4c.1.2.2.4.1.5s-.3.2-.4.2H32.8a1.6,1.6,0,0,1-1.3-.6l-1-1.5a2.1,2.1,0,0,0-2-.9v2.2c0,.8-.1.8-.8.8H26.2a.5.5,0,0,1-.6-.6V2.9c0-.4.3-.6.7-.6h1.6c.5,0,.6.1.6.6V7.7a1.7,1.7,0,0,0,1.9-.9,6.4,6.4,0,0,0,.8-1.4,1.3,1.3,0,0,1,1.2-.7,8.6,8.6,0,0,1,1.6,0c.4,0,.5.2.3.5L33.1,7.5A2.9,2.9,0,0,1,31.5,8.5Z" transform="translate(-0.7 -1)"/><path class="a" d="M38.3,9.3a1.6,1.6,0,0,0,1.5,1.6,2.6,2.6,0,0,0,2.4-.6l.7-.2h1.2c.5,0,.6.2.6.6a1.4,1.4,0,0,1-.9,1.2,4.1,4.1,0,0,1-1.8.5H38.7a3.7,3.7,0,0,1-3.4-3.9,3.7,3.7,0,0,1,3.4-3.8,9.2,9.2,0,0,1,3.7.1A3.7,3.7,0,0,1,45,8.9c-.1.4-.3.4-.7.4h-6Zm0-1.5h3.8c-.1-1.2-.7-1.6-1.9-1.7A1.6,1.6,0,0,0,38.3,7.8Z" transform="translate(-0.7 -1)"/><path class="a" d="M16.6,12.1h-.1A3.4,3.4,0,0,1,14.2,9a2.9,2.9,0,0,1,0-1.3,3.5,3.5,0,0,1,2.4-2.8,8.5,8.5,0,0,1,5,0,3.5,3.5,0,0,1,2.5,3.6,3.5,3.5,0,0,1-2.4,3.7h-.1A8.5,8.5,0,0,1,16.6,12.1ZM17,8.5h0v.6c.1,1,.6,1.6,1.3,1.7H20a1.3,1.3,0,0,0,1-.9,4.2,4.2,0,0,0,.1-2.7,1.8,1.8,0,0,0-1-.9c-1.4-.4-3.1-.2-3.1,2Z" transform="translate(-0.7 -1)"/><path class="a" d="M69.6,12.4a8.7,8.7,0,0,1-3.6-.1l-.5-.2a3.3,3.3,0,0,1-2.4-3.2,3.6,3.6,0,0,1,1.6-3.6,8.6,8.6,0,0,1,2.1-.7,8.1,8.1,0,0,1,3.8.3,3.7,3.7,0,0,1,2.5,3.6,3.6,3.6,0,0,1-2.5,3.7l-.9.2Zm.6-3.8h0V7.9a1.8,1.8,0,0,0-1.5-1.7,2.9,2.9,0,0,0-1.3,0,1.5,1.5,0,0,0-1.3,1.4,6.7,6.7,0,0,0,0,2,1.4,1.4,0,0,0,1.2,1.2c1.6.4,2.9-.1,2.9-2.1Z" transform="translate(-0.7 -1)"/><path class="a" d="M77.5,5.4l2.1-.8a4.6,4.6,0,0,1,2.6.2A2.7,2.7,0,0,1,84,7.3c.1,1.5.1,3.1.1,4.6s-.2.5-.6.5H81.8a.5.5,0,0,1-.6-.6c.1-1.1,0-2.2,0-3.3V8.1c0-1.6-1-2.3-2.5-1.6h-.1a1.6,1.6,0,0,0-1.2,1.8c.1,1.1,0,2.3,0,3.5s-.1.6-.6.6H75.2c-.5,0-.6-.1-.6-.6V5.3c0-.5.1-.6.6-.6h1.4C77.3,4.7,77.4,4.7,77.5,5.4Z" transform="translate(-0.7 -1)"/><path class="a" d="M42.6,1.3c.3.4-.1.7-.3,1l-.6.9a1.5,1.5,0,0,1-1.6.7c-.4,0-.5-.2-.4-.5a12.1,12.1,0,0,1,.5-1.8A1.2,1.2,0,0,1,41.6,1,1.5,1.5,0,0,1,42.6,1.3Z" transform="translate(-0.7 -1)"/></svg>